<?xml version="1.0" encoding="utf-8"?>
<!-- Generator: Adobe Illustrator 23.0.1, SVG Export Plug-In . SVG Version: 6.00 Build 0)  -->
<svg version="1.1" id="Ebene_1" xmlns="http://www.w3.org/2000/svg" xmlns:xlink="http://www.w3.org/1999/xlink" x="0px" y="0px"
	 viewBox="0 0 792 612" style="enable-background:new 0 0 792 612;" xml:space="preserve">
<g>
	<g>
		<path d="M372.46,242.73v13.69c0,13.61-11.66,24.69-26,24.69H329.8c-0.96,0-1.73-0.78-1.73-1.73v-59.61c0-0.96,0.78-1.73,1.73-1.73
			h16.67C360.8,218.04,372.46,229.12,372.46,242.73z M355.63,242.73c0-4.8-4.11-8.7-9.16-8.7h-1.07v31.09h1.07
			c5.05,0,9.16-3.9,9.16-8.7V242.73z"/>
		<path d="M406.42,279.78l-1.42-8.08c-0.04-0.25-0.26-0.43-0.51-0.43h-10.52c-0.25,0-0.47,0.18-0.51,0.43l-1.43,8.08
			c-0.15,0.83-0.87,1.43-1.71,1.43h-12.35c-1.08,0-1.9-0.97-1.71-2.04l10.57-59.61c0.15-0.83,0.87-1.43,1.71-1.43h21.45
			c0.84,0,1.56,0.6,1.71,1.43l10.48,59.6c0.19,1.06-0.63,2.03-1.71,2.03h-12.34C407.28,281.22,406.56,280.61,406.42,279.78z
			 M402.48,257.41l-2.72-15.48c-0.1-0.57-0.92-0.57-1.02,0l-2.75,15.48H402.48z"/>
		<path d="M442.09,282.19c-5.79,0-11.23-1.18-14.18-1.97c-0.96-0.25-1.5-1.23-1.2-2.16l4.2-12.85c0.28-0.85,1.18-1.35,2.07-1.13
			c5.95,1.52,13.51,4.28,13.51,0.04c0-2.73-0.75-3.54-6.18-6.67c-5.37-3.1-14.36-8.29-14.36-20.48c0-7.9,3.88-12.52,7.13-15.01
			c8.74-6.68,22.3-5.06,27.68-4.06c0.97,0.18,1.58,1.12,1.35,2.06l-3.2,13.15c-0.21,0.86-1.04,1.41-1.93,1.28
			c-5.35-0.78-13.58-1.93-13.58,2.58c0,2.04,0.47,2.9,5.86,6.01c5.49,3.17,14.68,8.47,14.68,21.14c0,5.91-2.49,10.92-7,14.12
			C452.7,281.25,447.25,282.18,442.09,282.19L442.09,282.19z"/>
	</g>
	<g>
		<path d="M134.74,395.02h-20.59c-0.91,0-1.74-0.53-2.12-1.36l-8.6-19.44c-0.36-0.81-1.56-0.55-1.56,0.33v18.13
			c0,1.29-1.05,2.34-2.34,2.34h-18.7c-1.29,0-2.34-1.05-2.34-2.34v-80.35c0-1.29,1.05-2.34,2.34-2.34h25.61
			c15.44,0,27.95,12.51,27.95,27.95v9.77c0,7.88-3.29,15-8.56,20.09l11.04,23.9C137.57,393.25,136.44,395.02,134.74,395.02z
			 M101.86,347.72c0,2.52,2.05,4.58,4.58,4.58c2.52,0,4.58-2.05,4.58-4.58v-9.77c0-2.52-2.05-4.58-4.58-4.58
			c-2.52,0-4.58,2.05-4.58,4.58V347.72z"/>
		<path d="M193.24,328.69h-19.46c-0.39,0-0.7,0.31-0.7,0.7v13.07c0,0.39,0.31,0.7,0.7,0.7h19.46c1.29,0,2.34,1.05,2.34,2.34v14.02
			c0,1.29-1.05,2.34-2.34,2.34h-19.46c-0.39,0-0.7,0.31-0.7,0.7v13.06c0,0.39,0.31,0.7,0.7,0.7h19.46c1.29,0,2.34,1.05,2.34,2.34
			v14.02c0,1.29-1.05,2.34-2.34,2.34h-41.19c-1.29,0-2.34-1.05-2.34-2.34v-80.35c0-1.29,1.05-2.34,2.34-2.34h9.35h31.84
			c1.29,0,2.34,1.05,2.34,2.34v14.02C195.58,327.65,194.53,328.69,193.24,328.69z"/>
		<path d="M260.44,312.33v17.24c0,0.42-0.11,0.82-0.32,1.18l-24.82,42.36c-0.27,0.47,0.06,1.06,0.6,1.06h22.2
			c1.29,0,2.34,1.05,2.34,2.34v16.18c0,1.29-1.05,2.34-2.34,2.34h-48.05c-1.29,0-2.34-1.05-2.34-2.34v-15.55
			c0-0.42,0.11-0.82,0.32-1.18l25.82-44.05c0.27-0.47-0.06-1.06-0.6-1.06h-23.19c-1.29,0-2.34-1.05-2.34-2.34v-16.18
			c0-1.29,1.05-2.34,2.34-2.34h48.05C259.4,310,260.44,311.04,260.44,312.33z"/>
		<path d="M316.16,328.69H296.7c-0.39,0-0.7,0.31-0.7,0.7v13.07c0,0.39,0.31,0.7,0.7,0.7h19.46c1.29,0,2.34,1.05,2.34,2.34v14.02
			c0,1.29-1.05,2.34-2.34,2.34H296.7c-0.39,0-0.7,0.31-0.7,0.7v13.06c0,0.39,0.31,0.7,0.7,0.7h19.46c1.29,0,2.34,1.05,2.34,2.34
			v14.02c0,1.29-1.05,2.34-2.34,2.34h-41.19c-1.29,0-2.34-1.05-2.34-2.34v-80.35c0-1.29,1.05-2.34,2.34-2.34h9.35h31.84
			c1.29,0,2.34,1.05,2.34,2.34v14.02C318.5,327.65,317.45,328.69,316.16,328.69z"/>
		<path d="M386.53,337.94v9.77c0,15.41-12.54,27.95-27.95,27.95c-1.28,0-2.54-0.11-3.78-0.28c-0.42-0.06-0.8,0.26-0.8,0.69v16.62
			c0,1.29-1.05,2.34-2.34,2.34h-18.7c-1.29,0-2.34-1.05-2.34-2.34v-80.35c0-1.29,1.05-2.34,2.34-2.34h25.61
			C374.02,310,386.53,322.51,386.53,337.94z M363.16,337.94c0-2.52-2.05-4.58-4.58-4.58s-4.58,2.05-4.58,4.58v9.77
			c0,2.52,2.05,4.58,4.58,4.58s4.58-2.05,4.58-4.58V337.94z"/>
		<path d="M445.4,312.33v18.7c0,1.29-1.05,2.34-2.34,2.34h-9.35v59.32c0,1.29-1.05,2.34-2.34,2.34h-18.7
			c-1.29,0-2.34-1.05-2.34-2.34v-59.32h-9.35c-1.29,0-2.34-1.05-2.34-2.34v-18.7c0-1.29,1.05-2.34,2.34-2.34h42.07
			C444.35,310,445.4,311.04,445.4,312.33z"/>
		<path d="M517.49,370.44c0,13.36-10.02,24.58-22.35,24.58h-14.23h-21.03c-1.29,0-2.34-1.05-2.34-2.34v-80.35
			c0-1.29,1.05-2.34,2.34-2.34h18.7h2.34h13.16c11.52,0,20.89,9.7,20.89,21.62c0,7.31-3.53,13.77-8.92,17.69
			C512.87,353.46,517.49,361.37,517.49,370.44z M493.37,335.15c0.87-4.54-2.59-8.52-6.98-8.52h-4.78c-0.39,0-0.7,0.31-0.7,0.7v12.82
			c0,0.39,0.31,0.7,0.7,0.7h4.52C489.57,340.85,492.72,338.53,493.37,335.15z M493.49,368.72c0.24-4.67-3.47-8.52-8.08-8.52h-3.8
			c-0.39,0-0.7,0.31-0.7,0.7v14.78c0,0.39,0.31,0.7,0.7,0.7h3.34C489.34,376.38,493.27,373.1,493.49,368.72z"/>
		<path d="M529.64,365.78v-53.44c0-1.29,1.05-2.34,2.34-2.34h18.7c1.29,0,2.34,1.05,2.34,2.34v53.98c0,2.64,1.89,5.05,4.51,5.31
			c3.02,0.31,5.57-2.06,5.57-5.01v-54.28c0-1.29,1.05-2.34,2.34-2.34h18.7c1.29,0,2.34,1.05,2.34,2.34v54.28
			c0,16.57-14.26,29.88-31.15,28.28C540.59,393.51,529.64,380.56,529.64,365.78z"/>
		<path d="M622,343.57v17.93c0,5.4,4.24,9.8,9.55,10.11h11.1c1.29,0,2.34,1.05,2.34,2.34v18.73c0,1.29-1.05,2.34-2.34,2.34h-11.1
			c-18.21-0.32-32.93-15.21-32.93-33.51v-17.93c0-18.3,14.72-33.19,32.93-33.51h11.1c1.29,0,2.34,1.05,2.34,2.34v18.73
			c0,1.29-1.05,2.34-2.34,2.34h-11.1C626.24,333.77,622,338.16,622,343.57z"/>
		<path d="M692.48,310.03h18.7c1.29,0,2.34,1.05,2.34,2.34v80.32c0,1.29-1.05,2.34-2.34,2.34h-18.7c-1.29,0-2.34-1.05-2.34-2.34
			v-30.13c0-0.39-0.31-0.7-0.7-0.7h-8.24c-0.39,0-0.7,0.31-0.7,0.7v30.13c0,1.29-1.05,2.34-2.34,2.34h-18.7
			c-1.29,0-2.34-1.05-2.34-2.34v-80.32c0-1.29,1.05-2.34,2.34-2.34h18.7c1.29,0,2.34,1.05,2.34,2.34v30.09c0,0.39,0.31,0.7,0.7,0.7
			h8.24c0.39,0,0.7-0.31,0.7-0.7v-30.09C690.14,311.08,691.19,310.03,692.48,310.03z"/>
	</g>
</g>
</svg>
