<?xml version="1.0" encoding="utf-8"?>
<!-- Generator: Adobe Illustrator 23.0.1, SVG Export Plug-In . SVG Version: 6.00 Build 0)  -->
<svg version="1.1" id="Ebene_1" xmlns="http://www.w3.org/2000/svg" xmlns:xlink="http://www.w3.org/1999/xlink" x="0px" y="0px"
	 viewBox="0 0 792 612" style="enable-background:new 0 0 792 612;" xml:space="preserve">
<g>
	<path d="M101.93,308.83V325c0,16.08-13.77,29.16-30.7,29.16H51.54c-1.13,0-2.05-0.92-2.05-2.05v-70.39c0-1.13,0.92-2.05,2.05-2.05
		h19.68C88.15,279.67,101.93,292.75,101.93,308.83z M82.04,308.83c0-5.66-4.85-10.27-10.81-10.27h-1.26v36.72h1.26
		c5.96,0,10.81-4.61,10.81-10.27V308.83z"/>
	<path d="M142.03,352.59l-1.68-9.54c-0.05-0.29-0.31-0.51-0.6-0.51h-12.42c-0.3,0-0.55,0.21-0.61,0.51l-1.69,9.54
		c-0.17,0.98-1.02,1.69-2.02,1.69h-14.58c-1.27,0-2.24-1.15-2.01-2.4l12.49-70.39c0.17-0.98,1.02-1.69,2.02-1.69h25.33
		c0.99,0,1.84,0.71,2.02,1.69l12.38,70.39c0.22,1.25-0.74,2.4-2.02,2.4h-14.58C143.05,354.28,142.2,353.56,142.03,352.59z
		 M137.38,326.16l-3.22-18.28c-0.12-0.68-1.09-0.68-1.21,0l-3.24,18.28H137.38z"/>
	<path d="M167.41,353.1c-1.13-0.3-1.77-1.46-1.41-2.55l4.96-15.18c0.33-1.01,1.4-1.6,2.44-1.33c7.03,1.8,15.96,5.05,15.96,0.05
		c0-3.22-0.89-4.18-7.3-7.88c-6.34-3.66-16.96-9.79-16.96-24.19c0-9.33,4.58-14.79,8.42-17.72c10.32-7.89,26.34-5.97,32.69-4.8
		c1.15,0.21,1.87,1.32,1.6,2.44l-3.78,15.53c-0.25,1.01-1.23,1.67-2.28,1.51c-6.32-0.92-16.04-2.27-16.04,3.05
		c0,2.4,0.55,3.42,6.92,7.1c6.48,3.74,17.34,10,17.34,24.97c0,6.98-2.94,12.9-8.27,16.68c-5.01,3.54-11.44,4.65-17.53,4.65
		C177.31,355.42,170.9,354.02,167.41,353.1z"/>
	<path d="M292.94,354.16h-18.04c-0.8,0-1.52-0.46-1.86-1.19l-7.54-17.03c-0.31-0.71-1.37-0.48-1.37,0.29v15.88
		c0,1.13-0.92,2.05-2.05,2.05h-16.38c-1.13,0-2.05-0.92-2.05-2.05v-70.39c0-1.13,0.92-2.05,2.05-2.05h22.43
		c13.52,0,24.48,10.96,24.48,24.48v8.56c0,6.91-2.89,13.14-7.5,17.6l9.67,20.94C295.42,352.61,294.43,354.16,292.94,354.16z
		 M264.13,312.72c0,2.21,1.8,4.01,4.01,4.01s4.01-1.8,4.01-4.01v-8.56c0-2.21-1.8-4.01-4.01-4.01s-4.01,1.8-4.01,4.01V312.72z"/>
	<path d="M337.8,296.05h-17.04c-0.34,0-0.62,0.27-0.62,0.61v11.45c0,0.34,0.27,0.61,0.62,0.61h17.04c1.13,0,2.05,0.92,2.05,2.05
		v12.29c0,1.13-0.92,2.05-2.05,2.05h-17.04c-0.34,0-0.62,0.27-0.62,0.61v11.45c0,0.34,0.27,0.61,0.62,0.61h17.04
		c1.13,0,2.05,0.92,2.05,2.05v12.28c0,1.13-0.92,2.05-2.05,2.05h-36.09c-1.13,0-2.05-0.92-2.05-2.05v-70.39
		c0-1.13,0.92-2.05,2.05-2.05h8.19h27.9c1.13,0,2.05,0.92,2.05,2.05v12.28C339.85,295.14,338.94,296.05,337.8,296.05z"/>
	<path d="M390.29,281.72v15.1c0,0.36-0.1,0.72-0.28,1.04l-21.75,37.1c-0.24,0.41,0.06,0.93,0.53,0.93h19.45
		c1.13,0,2.05,0.92,2.05,2.05v14.18c0,1.13-0.92,2.05-2.05,2.05h-42.09c-1.13,0-2.05-0.92-2.05-2.05v-13.62
		c0-0.36,0.1-0.72,0.28-1.03L367,298.87c0.24-0.41-0.06-0.92-0.53-0.92h-20.32c-1.13,0-2.05-0.92-2.05-2.05v-14.18
		c0-1.13,0.92-2.05,2.05-2.05h42.09C389.38,279.67,390.29,280.59,390.29,281.72z"/>
	<path d="M432.72,296.05h-17.05c-0.34,0-0.61,0.27-0.61,0.61v11.45c0,0.34,0.27,0.61,0.61,0.61h17.05c1.13,0,2.05,0.92,2.05,2.05
		v12.29c0,1.13-0.92,2.05-2.05,2.05h-17.05c-0.34,0-0.61,0.27-0.61,0.61v11.45c0,0.34,0.27,0.61,0.61,0.61h17.05
		c1.13,0,2.05,0.92,2.05,2.05v12.28c0,1.13-0.92,2.05-2.05,2.05h-36.09c-1.13,0-2.05-0.92-2.05-2.05v-70.39
		c0-1.13,0.92-2.05,2.05-2.05h8.19h27.9c1.13,0,2.05,0.92,2.05,2.05v12.28C434.76,295.14,433.85,296.05,432.72,296.05z"/>
	<path d="M487.98,304.16v8.56c0,13.5-10.98,24.48-24.48,24.48c-1.12,0-2.23-0.09-3.31-0.25c-0.37-0.05-0.7,0.23-0.7,0.6v14.56
		c0,1.13-0.92,2.05-2.05,2.05h-16.38c-1.13,0-2.05-0.92-2.05-2.05v-70.39c0-1.13,0.92-2.05,2.05-2.05h22.43
		C477.02,279.67,487.98,290.64,487.98,304.16z M467.51,304.16c0-2.21-1.8-4.01-4.01-4.01c-2.21,0-4.01,1.8-4.01,4.01v8.56
		c0,2.21,1.8,4.01,4.01,4.01c2.21,0,4.01-1.8,4.01-4.01V304.16z"/>
	<path d="M533.17,281.72v16.38c0,1.13-0.92,2.05-2.05,2.05h-8.19v51.97c0,1.13-0.92,2.05-2.05,2.05h-16.38
		c-1.13,0-2.05-0.92-2.05-2.05v-51.97h-8.19c-1.13,0-2.05-0.92-2.05-2.05v-16.38c0-1.13,0.92-2.05,2.05-2.05h36.85
		C532.25,279.67,533.17,280.59,533.17,281.72z"/>
	<path d="M589.94,332.63c0,11.71-8.78,21.53-19.58,21.53H557.9h-18.43c-1.13,0-2.05-0.92-2.05-2.05v-70.39
		c0-1.13,0.92-2.05,2.05-2.05h16.38h2.05h11.52c10.09,0,18.3,8.5,18.3,18.94c0,6.4-3.09,12.06-7.81,15.5
		C585.89,317.75,589.94,324.68,589.94,332.63z M568.81,301.71c0.76-3.98-2.27-7.46-6.11-7.46h-4.19c-0.34,0-0.61,0.27-0.61,0.61
		v11.23c0,0.34,0.28,0.61,0.61,0.61h3.96C565.48,306.7,568.24,304.67,568.81,301.71z M568.92,331.12c0.21-4.09-3.04-7.47-7.08-7.47
		h-3.33c-0.34,0-0.61,0.27-0.61,0.61v12.95c0,0.34,0.28,0.62,0.61,0.62h2.93C565.28,337.83,568.72,334.95,568.92,331.12z"/>
	<path d="M594.2,328.54v-46.82c0-1.13,0.92-2.05,2.05-2.05h16.38c1.13,0,2.05,0.92,2.05,2.05v47.29c0,2.31,1.66,4.42,3.95,4.65
		c2.64,0.27,4.88-1.81,4.88-4.39v-47.55c0-1.13,0.92-2.05,2.05-2.05h16.38c1.13,0,2.05,0.92,2.05,2.05v47.55
		c0,14.52-12.49,26.17-27.29,24.78C603.79,352.83,594.2,341.49,594.2,328.54z"/>
	<path d="M668.73,309.08v15.7c0,4.74,3.71,8.58,8.37,8.85h9.72c1.13,0,2.05,0.92,2.05,2.05v16.41c0,1.13-0.91,2.05-2.05,2.05h-9.72
		c-15.95-0.28-28.84-13.33-28.84-29.35v-15.7c0-16.03,12.9-29.08,28.84-29.35h9.72c1.13,0,2.05,0.92,2.05,2.05v16.41
		c0,1.13-0.91,2.05-2.05,2.05h-9.72C672.44,300.5,668.73,304.35,668.73,309.08z"/>
	<path d="M724.08,279.7h16.38c1.13,0,2.05,0.92,2.05,2.05v70.36c0,1.13-0.92,2.05-2.05,2.05h-16.38c-1.13,0-2.05-0.92-2.05-2.05
		v-26.39c0-0.34-0.27-0.61-0.62-0.61h-7.22c-0.34,0-0.62,0.27-0.62,0.61v26.39c0,1.13-0.92,2.05-2.05,2.05h-16.38
		c-1.13,0-2.05-0.92-2.05-2.05v-70.36c0-1.13,0.92-2.05,2.05-2.05h16.38c1.13,0,2.05,0.92,2.05,2.05v26.36
		c0,0.34,0.27,0.61,0.62,0.61h7.22c0.34,0,0.62-0.27,0.62-0.61v-26.36C722.03,280.62,722.95,279.7,724.08,279.7z"/>
</g>
</svg>
